<svg width="28" height="28" viewBox="0 0 28 28" fill="none" xmlns="http://www.w3.org/2000/svg">
<path d="M13.1796 19.9966V14.8204H7.40977C7.46606 16.8504 7.7309 18.7973 8.1834 20.561C9.76105 20.2361 11.4468 20.0431 13.1796 19.9966Z" fill="white"/>
<path d="M11.6407 27.0519C12.1424 27.4762 12.6575 27.762 13.1795 27.9087V21.638C11.6073 21.6821 10.0817 21.8524 8.6548 22.1367C8.89869 22.8434 9.17583 23.5109 9.48536 24.13C10.117 25.3933 10.8422 26.3764 11.6407 27.0519Z" fill="white"/>
<path d="M18.5146 24.13C18.8242 23.5109 19.1012 22.8434 19.3452 22.1367C17.9183 21.8524 16.3927 21.682 14.8205 21.638V27.9087C15.3426 27.762 15.8576 27.4762 16.3593 27.0518C17.1578 26.3764 17.8829 25.3933 18.5146 24.13Z" fill="white"/>
<path d="M20.9488 5.48358C22.1052 5.16454 23.1733 4.7646 24.1198 4.29121C24.0527 4.22142 23.9854 4.15184 23.9168 4.08325C22.3396 2.50609 20.4529 1.35102 18.3937 0.674377C18.9705 1.35616 19.504 2.17956 19.9823 3.13619C20.346 3.86359 20.6689 4.6498 20.9488 5.48358Z" fill="white"/>
<path d="M14.8205 14.8204V19.9966C16.5532 20.0431 18.239 20.2361 19.8166 20.561C20.2691 18.7973 20.534 16.8503 20.5902 14.8204H14.8205Z" fill="white"/>
<path d="M9.48536 3.86997C9.17583 4.48902 8.89869 5.15642 8.6548 5.86321C10.0817 6.14752 11.6073 6.31789 13.1795 6.36192V0.0911865C12.6574 0.237827 12.1423 0.523668 11.6407 0.948055C10.8422 1.62355 10.117 2.6066 9.48536 3.86997Z" fill="white"/>
<path d="M13.1796 13.1795V8.00326C11.4469 7.95682 9.76109 7.76374 8.18349 7.4389C7.73093 9.20258 7.46615 11.1496 7.40987 13.1795H13.1796Z" fill="white"/>
<path d="M7.05117 22.5164C5.89473 22.8354 4.82668 23.2353 3.88022 23.7087C3.94722 23.7785 4.01455 23.8481 4.0832 23.9167C5.66036 25.4939 7.5471 26.649 9.60629 27.3256C9.02947 26.6438 8.49602 25.8204 8.0177 24.8638C7.65397 24.1363 7.33105 23.3501 7.05117 22.5164Z" fill="white"/>
<path d="M21.4108 20.9449C22.8081 21.3321 24.0921 21.8299 25.2125 22.4268C26.874 20.2256 27.8407 17.5994 28 14.8204H22.2317C22.1748 16.9766 21.8937 19.0536 21.4108 20.9449Z" fill="white"/>
<path d="M20.9488 22.5164C20.6689 23.3501 20.346 24.1363 19.9823 24.8638C19.504 25.8204 18.9704 26.6438 18.3937 27.3256C20.4529 26.649 22.3396 25.4939 23.9168 23.9167C23.9854 23.8481 24.0527 23.7785 24.1198 23.7088C23.1733 23.2353 22.1052 22.8354 20.9488 22.5164Z" fill="white"/>
<path d="M21.4108 7.05506C21.8937 8.94639 22.1748 11.0234 22.2317 13.1795H28C27.8407 10.4005 26.874 7.77431 25.2125 5.57312C24.0921 6.17007 22.8081 6.66786 21.4108 7.05506Z" fill="white"/>
<path d="M14.8205 8.00326V13.1795H20.5902C20.534 11.1495 20.2691 9.20258 19.8166 7.4389C18.239 7.76374 16.5532 7.95682 14.8205 8.00326Z" fill="white"/>
<path d="M16.3593 0.948055C15.8576 0.523723 15.3426 0.237881 14.8205 0.0911865V6.36187C16.3926 6.31778 17.9183 6.14746 19.3452 5.86315C19.1013 5.15642 18.8242 4.48897 18.5146 3.86992C17.8829 2.6066 17.1578 1.62355 16.3593 0.948055Z" fill="white"/>
<path d="M7.05117 5.48357C7.33105 4.64979 7.65397 3.86359 8.0177 3.13613C8.49602 2.1795 9.02952 1.3561 9.60629 0.674316C7.5471 1.35096 5.66041 2.50603 4.0832 4.08319C4.01455 4.15184 3.94722 4.22141 3.88022 4.2912C4.82668 4.7646 5.89478 5.16453 7.05117 5.48357Z" fill="white"/>
<path d="M6.58923 20.9449C6.10627 19.0535 5.82524 16.9765 5.76824 14.8204H0C0.159275 17.5994 1.12597 20.2255 2.78747 22.4267C3.90787 21.8298 5.19186 21.332 6.58923 20.9449Z" fill="white"/>
<path d="M6.58923 7.055C5.19191 6.66781 3.90787 6.17002 2.78747 5.57312C1.12597 7.77431 0.159275 10.4005 0 13.1795H5.76824C5.82518 11.0233 6.10627 8.94628 6.58923 7.055Z" fill="white"/>
</svg>
